<mxfile host="app.diagrams.net" modified="2020-08-29T04:33:44.143Z" agent="5.0 (X11; Linux x86_64) AppleWebKit/537.36 (KHTML, like Gecko) Chrome/84.0.4147.135 Safari/537.36" etag="q0-7KxZqxNQSZInwmTW-" version="13.6.5" type="github" pages="3">
  <diagram name="Page-1" id="74b105a0-9070-1c63-61bc-23e55f88626e">
    <mxGraphModel dx="454" dy="704" grid="1" gridSize="10" guides="1" tooltips="1" connect="1" arrows="1" fold="1" page="1" pageScale="1.5" pageWidth="1169" pageHeight="826" background="none" math="0" shadow="0">
      <root>
        <mxCell id="0" style=";html=1;" />
        <mxCell id="1" style=";html=1;" parent="0" />
        <mxCell id="9kIbTkzlDd8YXpV13XN0-2" value="" style="rounded=1;whiteSpace=wrap;html=1;strokeWidth=2;fillWeight=4;hachureGap=8;hachureAngle=45;fillColor=#1ba1e2;sketch=1;" parent="1" vertex="1">
          <mxGeometry x="690" y="320" width="120" height="60" as="geometry" />
        </mxCell>
        <mxCell id="9kIbTkzlDd8YXpV13XN0-16" value="" style="edgeStyle=orthogonalEdgeStyle;rounded=0;orthogonalLoop=1;jettySize=auto;html=1;fontSize=15;entryX=0.5;entryY=0;entryDx=0;entryDy=0;" parent="1" source="9kIbTkzlDd8YXpV13XN0-3" target="9kIbTkzlDd8YXpV13XN0-22" edge="1">
          <mxGeometry relative="1" as="geometry">
            <mxPoint x="500" y="320" as="targetPoint" />
          </mxGeometry>
        </mxCell>
        <mxCell id="9kIbTkzlDd8YXpV13XN0-39" value="定义" style="edgeStyle=orthogonalEdgeStyle;rounded=0;orthogonalLoop=1;jettySize=auto;html=1;fontSize=15;fontColor=#00FFFF;" parent="1" source="9kIbTkzlDd8YXpV13XN0-3" target="9kIbTkzlDd8YXpV13XN0-38" edge="1">
          <mxGeometry relative="1" as="geometry">
            <Array as="points">
              <mxPoint x="530" y="90" />
              <mxPoint x="530" y="90" />
            </Array>
          </mxGeometry>
        </mxCell>
        <mxCell id="9kIbTkzlDd8YXpV13XN0-3" value="&lt;font style=&quot;font-size: 22px ; line-height: 100% ; background-color: rgb(214 , 214 , 0)&quot; color=&quot;#a82222&quot;&gt;sym_desc&lt;/font&gt;" style="ellipse;whiteSpace=wrap;html=1;strokeWidth=2;fillWeight=2;hachureGap=8;fillColor=#990000;fillStyle=zigzag-line;sketch=1;fontSize=15;fontColor=#00FFFF;" parent="1" vertex="1">
          <mxGeometry x="470" y="240" width="120" height="60" as="geometry" />
        </mxCell>
        <mxCell id="9kIbTkzlDd8YXpV13XN0-22" value="&lt;font color=&quot;#c7c728&quot;&gt;&lt;span style=&quot;font-size: 22px ; background-color: rgb(204 , 0 , 102)&quot;&gt;结构体类型&lt;/span&gt;&lt;/font&gt;" style="rounded=1;whiteSpace=wrap;html=1;sketch=1;fillWeight=2;hachureGap=8;fillStyle=zigzag-line;strokeWidth=2;fillColor=none;fontSize=15;fontColor=#00FFFF;" parent="1" vertex="1">
          <mxGeometry x="470" y="420" width="120" height="60" as="geometry" />
        </mxCell>
        <mxCell id="9kIbTkzlDd8YXpV13XN0-33" value="" style="edgeStyle=orthogonalEdgeStyle;rounded=0;orthogonalLoop=1;jettySize=auto;html=1;fontSize=22;fontColor=#00A3A3;" parent="1" source="9kIbTkzlDd8YXpV13XN0-31" target="9kIbTkzlDd8YXpV13XN0-3" edge="1">
          <mxGeometry relative="1" as="geometry" />
        </mxCell>
        <mxCell id="9kIbTkzlDd8YXpV13XN0-31" value="1、文件名称字符串&lt;br&gt;2、符号字符串" style="text;html=1;strokeColor=none;fillColor=none;align=left;verticalAlign=middle;whiteSpace=wrap;rounded=0;sketch=1;fillWeight=2;hachureGap=8;fillStyle=zigzag-line;fontSize=22;fontColor=#00A3A3;" parent="1" vertex="1">
          <mxGeometry x="660" y="240" width="200" height="60" as="geometry" />
        </mxCell>
        <mxCell id="9kIbTkzlDd8YXpV13XN0-38" value="&lt;span style=&quot;color: rgb(168 , 34 , 34) ; font-size: 22px ; background-color: rgb(214 , 214 , 0)&quot;&gt;nr_ignore_syms&lt;/span&gt;" style="shape=cylinder;whiteSpace=wrap;html=1;boundedLbl=1;backgroundOutline=1;fontSize=15;fontColor=#00FFFF;strokeWidth=2;fillColor=#990000;sketch=1;fillWeight=2;hachureGap=8;fillStyle=zigzag-line;shadow=0;" parent="1" vertex="1">
          <mxGeometry x="490" y="20" width="60" height="80" as="geometry" />
        </mxCell>
        <mxCell id="h94R50qszBw7e-xgFKNQ-2" value="&lt;font color=&quot;#a82222&quot;&gt;&lt;span style=&quot;font-size: 22px ; background-color: rgb(217 , 217 , 0)&quot;&gt;nr_unlink_syms&lt;/span&gt;&lt;/font&gt;" style="shape=cylinder;whiteSpace=wrap;html=1;boundedLbl=1;backgroundOutline=1;fontSize=15;fontColor=#00FFFF;strokeWidth=2;fillColor=#990000;sketch=1;fillWeight=2;hachureGap=8;fillStyle=zigzag-line;shadow=0;" vertex="1" parent="1">
          <mxGeometry x="220" y="230" width="60" height="80" as="geometry" />
        </mxCell>
        <mxCell id="h94R50qszBw7e-xgFKNQ-3" value="定义" style="edgeStyle=orthogonalEdgeStyle;rounded=0;orthogonalLoop=1;jettySize=auto;html=1;fontSize=15;fontColor=#00FFFF;exitX=0;exitY=0.5;exitDx=0;exitDy=0;" edge="1" parent="1" source="9kIbTkzlDd8YXpV13XN0-3" target="h94R50qszBw7e-xgFKNQ-2">
          <mxGeometry relative="1" as="geometry">
            <Array as="points">
              <mxPoint x="270" y="270" />
            </Array>
            <mxPoint x="420" y="200" as="sourcePoint" />
            <mxPoint x="420" y="50" as="targetPoint" />
          </mxGeometry>
        </mxCell>
        <mxCell id="h94R50qszBw7e-xgFKNQ-4" style="edgeStyle=orthogonalEdgeStyle;rounded=0;orthogonalLoop=1;jettySize=auto;html=1;exitX=0.5;exitY=1;exitDx=0;exitDy=0;entryX=1;entryY=0.7;entryDx=0;entryDy=0;" edge="1" parent="1" source="h94R50qszBw7e-xgFKNQ-2" target="h94R50qszBw7e-xgFKNQ-2">
          <mxGeometry relative="1" as="geometry" />
        </mxCell>
        <mxCell id="h94R50qszBw7e-xgFKNQ-7" value="&lt;font color=&quot;#a82222&quot;&gt;&lt;span style=&quot;font-size: 22px ; background-color: rgb(217 , 217 , 0)&quot;&gt;nr_must_adapt_syms&lt;/span&gt;&lt;/font&gt;" style="shape=cylinder;whiteSpace=wrap;html=1;boundedLbl=1;backgroundOutline=1;fontSize=15;fontColor=#00FFFF;strokeWidth=2;fillColor=#990000;sketch=1;fillWeight=2;hachureGap=8;fillStyle=zigzag-line;shadow=0;" vertex="1" parent="1">
          <mxGeometry x="260" y="30" width="60" height="80" as="geometry" />
        </mxCell>
        <mxCell id="h94R50qszBw7e-xgFKNQ-8" value="定义" style="edgeStyle=orthogonalEdgeStyle;rounded=0;orthogonalLoop=1;jettySize=auto;html=1;fontSize=15;fontColor=#00FFFF;exitX=0;exitY=0;exitDx=0;exitDy=0;entryX=1;entryY=0.5;entryDx=0;entryDy=0;" edge="1" parent="1" source="9kIbTkzlDd8YXpV13XN0-3" target="h94R50qszBw7e-xgFKNQ-7">
          <mxGeometry relative="1" as="geometry">
            <Array as="points">
              <mxPoint x="488" y="169" />
              <mxPoint x="300" y="169" />
            </Array>
            <mxPoint x="390" y="80" as="sourcePoint" />
            <mxPoint x="250" y="80" as="targetPoint" />
          </mxGeometry>
        </mxCell>
        <mxCell id="h94R50qszBw7e-xgFKNQ-12" value="" style="edgeStyle=orthogonalEdgeStyle;rounded=0;orthogonalLoop=1;jettySize=auto;html=1;" edge="1" parent="1" source="h94R50qszBw7e-xgFKNQ-11" target="9kIbTkzlDd8YXpV13XN0-22">
          <mxGeometry relative="1" as="geometry" />
        </mxCell>
        <mxCell id="h94R50qszBw7e-xgFKNQ-11" value="&lt;font style=&quot;font-size: 22px ; line-height: 100% ; background-color: rgb(214 , 214 , 0)&quot; color=&quot;#a82222&quot;&gt;rename&lt;/font&gt;" style="ellipse;whiteSpace=wrap;html=1;strokeWidth=2;fillWeight=2;hachureGap=8;fillColor=#990000;fillStyle=zigzag-line;sketch=1;fontSize=15;fontColor=#00FFFF;" vertex="1" parent="1">
          <mxGeometry x="470" y="540" width="120" height="60" as="geometry" />
        </mxCell>
        <mxCell id="h94R50qszBw7e-xgFKNQ-15" value="1、源对象的字符结构体&lt;br&gt;2、目标对象的字符结构体&lt;br&gt;3、采用红黑树的数据结构" style="text;html=1;strokeColor=none;fillColor=none;align=left;verticalAlign=middle;whiteSpace=wrap;rounded=0;sketch=1;fillWeight=2;hachureGap=8;fillStyle=zigzag-line;fontSize=22;fontColor=#00A3A3;" vertex="1" parent="1">
          <mxGeometry x="690" y="540" width="260" height="60" as="geometry" />
        </mxCell>
        <mxCell id="h94R50qszBw7e-xgFKNQ-16" value="" style="edgeStyle=orthogonalEdgeStyle;rounded=0;orthogonalLoop=1;jettySize=auto;html=1;fontSize=22;fontColor=#00A3A3;entryX=1;entryY=0.5;entryDx=0;entryDy=0;" edge="1" source="h94R50qszBw7e-xgFKNQ-15" parent="1" target="h94R50qszBw7e-xgFKNQ-11">
          <mxGeometry relative="1" as="geometry">
            <mxPoint x="607" y="570" as="targetPoint" />
          </mxGeometry>
        </mxCell>
      </root>
    </mxGraphModel>
  </diagram>
  <diagram id="REwVXev2Bb4hqXamC18t" name="Page-2">
    <mxGraphModel dx="454" dy="704" grid="1" gridSize="10" guides="1" tooltips="1" connect="1" arrows="1" fold="1" page="1" pageScale="1" pageWidth="827" pageHeight="1169" math="0" shadow="0">
      <root>
        <mxCell id="SV7qr9vXZeNDcLqE3tPl-0" />
        <mxCell id="SV7qr9vXZeNDcLqE3tPl-1" parent="SV7qr9vXZeNDcLqE3tPl-0" />
        <mxCell id="KBuxAIa4LTlE8j3iOY_Z-14" style="edgeStyle=orthogonalEdgeStyle;rounded=0;orthogonalLoop=1;jettySize=auto;html=1;exitX=0.5;exitY=0;exitDx=0;exitDy=0;entryX=0.5;entryY=1;entryDx=0;entryDy=0;" edge="1" parent="SV7qr9vXZeNDcLqE3tPl-1" source="KBuxAIa4LTlE8j3iOY_Z-0" target="KBuxAIa4LTlE8j3iOY_Z-2">
          <mxGeometry relative="1" as="geometry" />
        </mxCell>
        <mxCell id="KBuxAIa4LTlE8j3iOY_Z-15" style="edgeStyle=orthogonalEdgeStyle;rounded=0;orthogonalLoop=1;jettySize=auto;html=1;exitX=1;exitY=0.5;exitDx=0;exitDy=0;entryX=0.5;entryY=1;entryDx=0;entryDy=0;" edge="1" parent="SV7qr9vXZeNDcLqE3tPl-1" source="KBuxAIa4LTlE8j3iOY_Z-0" target="KBuxAIa4LTlE8j3iOY_Z-13">
          <mxGeometry relative="1" as="geometry" />
        </mxCell>
        <mxCell id="KBuxAIa4LTlE8j3iOY_Z-24" style="edgeStyle=orthogonalEdgeStyle;rounded=0;orthogonalLoop=1;jettySize=auto;html=1;exitX=0;exitY=1;exitDx=0;exitDy=0;entryX=0.5;entryY=0;entryDx=0;entryDy=0;" edge="1" parent="SV7qr9vXZeNDcLqE3tPl-1" source="KBuxAIa4LTlE8j3iOY_Z-0" target="KBuxAIa4LTlE8j3iOY_Z-23">
          <mxGeometry relative="1" as="geometry">
            <mxPoint x="434" y="640" as="targetPoint" />
          </mxGeometry>
        </mxCell>
        <mxCell id="KBuxAIa4LTlE8j3iOY_Z-28" style="edgeStyle=orthogonalEdgeStyle;rounded=0;orthogonalLoop=1;jettySize=auto;html=1;exitX=1;exitY=1;exitDx=0;exitDy=0;entryX=0.5;entryY=0;entryDx=0;entryDy=0;" edge="1" parent="SV7qr9vXZeNDcLqE3tPl-1" source="KBuxAIa4LTlE8j3iOY_Z-0" target="KBuxAIa4LTlE8j3iOY_Z-27">
          <mxGeometry relative="1" as="geometry" />
        </mxCell>
        <mxCell id="KBuxAIa4LTlE8j3iOY_Z-0" value="&lt;font color=&quot;#c7c728&quot;&gt;&lt;span style=&quot;font-size: 22px ; background-color: rgb(204 , 0 , 102)&quot;&gt;Rename&lt;/span&gt;&lt;/font&gt;" style="rounded=1;whiteSpace=wrap;html=1;sketch=1;fillWeight=2;hachureGap=8;fillStyle=zigzag-line;strokeWidth=2;fillColor=none;fontSize=15;fontColor=#00FFFF;" vertex="1" parent="SV7qr9vXZeNDcLqE3tPl-1">
          <mxGeometry x="374" y="510" width="120" height="60" as="geometry" />
        </mxCell>
        <mxCell id="KBuxAIa4LTlE8j3iOY_Z-8" value="1" style="edgeStyle=orthogonalEdgeStyle;rounded=0;orthogonalLoop=1;jettySize=auto;html=1;" edge="1" parent="SV7qr9vXZeNDcLqE3tPl-1" source="KBuxAIa4LTlE8j3iOY_Z-2" target="KBuxAIa4LTlE8j3iOY_Z-5">
          <mxGeometry relative="1" as="geometry" />
        </mxCell>
        <mxCell id="KBuxAIa4LTlE8j3iOY_Z-10" value="2" style="edgeStyle=orthogonalEdgeStyle;rounded=0;orthogonalLoop=1;jettySize=auto;html=1;" edge="1" parent="SV7qr9vXZeNDcLqE3tPl-1" source="KBuxAIa4LTlE8j3iOY_Z-2" target="KBuxAIa4LTlE8j3iOY_Z-6">
          <mxGeometry relative="1" as="geometry" />
        </mxCell>
        <mxCell id="KBuxAIa4LTlE8j3iOY_Z-2" value="&lt;font style=&quot;font-size: 22px ; line-height: 100% ; background-color: rgb(214 , 214 , 0)&quot; color=&quot;#a82222&quot;&gt;rename_find&lt;/font&gt;" style="ellipse;whiteSpace=wrap;html=1;strokeWidth=2;fillWeight=2;hachureGap=8;fillColor=#990000;fillStyle=zigzag-line;sketch=1;fontSize=15;fontColor=#00FFFF;" vertex="1" parent="SV7qr9vXZeNDcLqE3tPl-1">
          <mxGeometry x="374" y="380" width="120" height="60" as="geometry" />
        </mxCell>
        <mxCell id="KBuxAIa4LTlE8j3iOY_Z-5" value="&lt;font style=&quot;font-size: 22px ; line-height: 100% ; background-color: rgb(214 , 214 , 0)&quot; color=&quot;#a82222&quot;&gt;rename_cmp&lt;/font&gt;" style="ellipse;whiteSpace=wrap;html=1;strokeWidth=2;fillWeight=2;hachureGap=8;fillColor=#990000;fillStyle=zigzag-line;sketch=1;fontSize=15;fontColor=#00FFFF;" vertex="1" parent="SV7qr9vXZeNDcLqE3tPl-1">
          <mxGeometry x="184" y="230" width="120" height="60" as="geometry" />
        </mxCell>
        <mxCell id="KBuxAIa4LTlE8j3iOY_Z-6" value="&lt;font style=&quot;font-size: 22px ; line-height: 100% ; background-color: rgb(214 , 214 , 0)&quot; color=&quot;#a82222&quot;&gt;rename_add&lt;/font&gt;" style="ellipse;whiteSpace=wrap;html=1;strokeWidth=2;fillWeight=2;hachureGap=8;fillColor=#990000;fillStyle=zigzag-line;sketch=1;fontSize=15;fontColor=#00FFFF;" vertex="1" parent="SV7qr9vXZeNDcLqE3tPl-1">
          <mxGeometry x="374" y="230" width="120" height="60" as="geometry" />
        </mxCell>
        <mxCell id="KBuxAIa4LTlE8j3iOY_Z-7" style="edgeStyle=orthogonalEdgeStyle;rounded=0;orthogonalLoop=1;jettySize=auto;html=1;exitX=1;exitY=0.5;exitDx=0;exitDy=0;entryX=0.917;entryY=0.5;entryDx=0;entryDy=0;entryPerimeter=0;" edge="1" parent="SV7qr9vXZeNDcLqE3tPl-1" source="KBuxAIa4LTlE8j3iOY_Z-5" target="KBuxAIa4LTlE8j3iOY_Z-5">
          <mxGeometry relative="1" as="geometry" />
        </mxCell>
        <mxCell id="KBuxAIa4LTlE8j3iOY_Z-18" style="edgeStyle=orthogonalEdgeStyle;rounded=0;orthogonalLoop=1;jettySize=auto;html=1;exitX=0;exitY=0.5;exitDx=0;exitDy=0;entryX=1;entryY=0.5;entryDx=0;entryDy=0;" edge="1" parent="SV7qr9vXZeNDcLqE3tPl-1" source="KBuxAIa4LTlE8j3iOY_Z-13" target="KBuxAIa4LTlE8j3iOY_Z-2">
          <mxGeometry relative="1" as="geometry" />
        </mxCell>
        <mxCell id="KBuxAIa4LTlE8j3iOY_Z-13" value="&lt;font style=&quot;font-size: 22px ; line-height: 100% ; background-color: rgb(214 , 214 , 0)&quot; color=&quot;#a82222&quot;&gt;rename_del&lt;/font&gt;" style="ellipse;whiteSpace=wrap;html=1;strokeWidth=2;fillWeight=2;hachureGap=8;fillColor=#990000;fillStyle=zigzag-line;sketch=1;fontSize=15;fontColor=#00FFFF;" vertex="1" parent="SV7qr9vXZeNDcLqE3tPl-1">
          <mxGeometry x="564" y="380" width="120" height="60" as="geometry" />
        </mxCell>
        <mxCell id="KBuxAIa4LTlE8j3iOY_Z-21" style="edgeStyle=orthogonalEdgeStyle;rounded=0;orthogonalLoop=1;jettySize=auto;html=1;exitX=1;exitY=0.5;exitDx=0;exitDy=0;" edge="1" parent="SV7qr9vXZeNDcLqE3tPl-1" source="KBuxAIa4LTlE8j3iOY_Z-19">
          <mxGeometry relative="1" as="geometry">
            <mxPoint x="374" y="560" as="targetPoint" />
            <Array as="points">
              <mxPoint x="374" y="560" />
            </Array>
          </mxGeometry>
        </mxCell>
        <mxCell id="KBuxAIa4LTlE8j3iOY_Z-19" value="我对Rename的理解是将符号从字符串中以类似词法分析的方式提取出来" style="text;html=1;strokeColor=none;fillColor=none;align=left;verticalAlign=middle;whiteSpace=wrap;rounded=0;sketch=1;fillWeight=2;hachureGap=8;fillStyle=zigzag-line;fontSize=22;fontColor=#00A3A3;" vertex="1" parent="SV7qr9vXZeNDcLqE3tPl-1">
          <mxGeometry x="104" y="530" width="200" height="60" as="geometry" />
        </mxCell>
        <mxCell id="KBuxAIa4LTlE8j3iOY_Z-23" value="&lt;font style=&quot;font-size: 22px ; line-height: 100% ; background-color: rgb(214 , 214 , 0)&quot; color=&quot;#a82222&quot;&gt;get_full_reg&lt;/font&gt;" style="ellipse;whiteSpace=wrap;html=1;strokeWidth=2;fillWeight=2;hachureGap=8;fillColor=#990000;fillStyle=zigzag-line;sketch=1;fontSize=15;fontColor=#00FFFF;" vertex="1" parent="SV7qr9vXZeNDcLqE3tPl-1">
          <mxGeometry x="190" y="640" width="114" height="60" as="geometry" />
        </mxCell>
        <mxCell id="KBuxAIa4LTlE8j3iOY_Z-27" value="&lt;font style=&quot;font-size: 22px ; line-height: 100% ; background-color: rgb(214 , 214 , 0)&quot; color=&quot;#a82222&quot;&gt;sym_desc&lt;/font&gt;" style="ellipse;whiteSpace=wrap;html=1;strokeWidth=2;fillWeight=2;hachureGap=8;fillColor=#990000;fillStyle=zigzag-line;sketch=1;fontSize=15;fontColor=#00FFFF;" vertex="1" parent="SV7qr9vXZeNDcLqE3tPl-1">
          <mxGeometry x="604" y="640" width="120" height="60" as="geometry" />
        </mxCell>
      </root>
    </mxGraphModel>
  </diagram>
  <diagram id="yEBem7Vf03yi2FVHF_l4" name="Page-3">
    <mxGraphModel dx="454" dy="704" grid="1" gridSize="10" guides="1" tooltips="1" connect="1" arrows="1" fold="1" page="1" pageScale="1" pageWidth="827" pageHeight="1169" math="0" shadow="0">
      <root>
        <mxCell id="ROQA-wrDpYS8jQxqa03J-0" />
        <mxCell id="ROQA-wrDpYS8jQxqa03J-1" parent="ROQA-wrDpYS8jQxqa03J-0" />
      </root>
    </mxGraphModel>
  </diagram>
</mxfile>
